<svg width="42" height="42" viewBox="0 0 42 42" fill="none" xmlns="http://www.w3.org/2000/svg">
<path d="M24.4571 3.88835L27.9767 10.9858C28.4567 11.9737 29.7365 12.9214 30.8165 13.1029L37.1957 14.1715C41.2753 14.8571 42.2353 17.8412 39.2955 20.785L34.3361 25.7854C33.4961 26.6322 33.0363 28.2654 33.2961 29.435L34.7161 35.625C35.8359 40.5246 33.2561 42.42 28.9567 39.8592L22.9773 36.2904C21.8975 35.6452 20.1177 35.6452 19.0177 36.2904L13.0385 39.8592C8.75895 42.42 6.15925 40.5044 7.27913 35.625L8.69897 29.435C8.95893 28.2654 8.49899 26.6322 7.65907 25.7854L2.69963 20.785C-0.220048 17.8412 0.719852 14.8571 4.79939 14.1715L11.1787 13.1029C12.2386 12.9214 13.5184 11.9737 13.9984 10.9858L17.5179 3.88835C19.4377 0.0372151 22.5573 0.0372151 24.4571 3.88835Z" fill="#FFC542" stroke="#141B34" stroke-width="2" stroke-linecap="round" stroke-linejoin="round"/>
</svg>
